<svg width="336" height="363" viewBox="0 0 336 363" fill="none" xmlns="http://www.w3.org/2000/svg">
<path d="M171.014 92.376C174.821 92.376 177.908 89.2967 177.908 85.4814V65.2206C177.908 61.4137 174.821 58.326 171.014 58.326C167.207 58.326 164.119 61.4137 164.119 65.2206V85.4814C164.119 89.2967 167.207 92.376 171.014 92.376Z" fill="#2E303F"/>
<path d="M197.341 99.9305C198.483 100.641 199.744 100.979 200.996 100.979C203.297 100.979 205.539 99.8289 206.85 97.7394L217.585 80.5579C219.598 77.3263 218.617 73.0711 215.394 71.0493C212.154 69.0359 207.899 70.0172 205.885 73.2488L195.15 90.4218C193.128 93.6534 194.118 97.9086 197.341 99.9305Z" fill="#2E303F"/>
<path d="M135.18 97.7394C136.492 99.8289 138.734 100.979 141.035 100.979C142.287 100.979 143.547 100.641 144.681 99.9305C147.912 97.9086 148.893 93.6534 146.88 90.4218L136.145 73.2488C134.123 70.0172 129.868 69.0359 126.636 71.0493C123.405 73.0711 122.423 77.3263 124.445 80.5579L135.18 97.7394Z" fill="#2E303F"/>
<path d="M142.607 199.01L98.9131 181.896V215.514C98.9131 218.035 100.512 220.286 102.914 221.115L166.074 242.568V177.539L148.089 197.69C146.71 199.23 144.544 199.763 142.607 199.01Z" fill="#2E303F"/>
<path d="M171.023 150.992L123.209 134.75L171.006 118.499L218.82 134.75L171.023 150.992ZM200.919 187.826L262.675 163.64C264.527 162.912 265.153 160.603 263.918 159.046L242.245 131.696C241.534 130.529 240.451 129.598 239.106 129.15L172.918 106.647C171.674 106.241 170.338 106.241 169.111 106.647L102.914 129.15C101.578 129.598 100.495 130.529 99.7844 131.696L78.1108 159.046C76.8757 160.603 77.5018 162.912 79.3544 163.64L141.11 187.826C142.26 188.283 143.571 187.97 144.392 187.039L167.335 161.33C169.213 159.241 172.816 159.241 174.694 161.33L197.637 187.039C198.458 187.97 199.769 188.283 200.919 187.826Z" fill="#2E303F"/>
<path d="M220.715 205.938L222.55 205.651L221.451 204.145C218.591 200.304 218.016 195.322 219.691 191.075L199.439 198.993C198.821 199.238 198.212 199.365 197.637 199.365C196.249 199.365 194.904 198.79 193.923 197.69L175.946 177.556V242.577L209.032 231.309C208.99 230.979 208.99 230.649 208.99 230.328V219.457C208.99 212.681 214.015 206.877 220.715 205.938Z" fill="#2E303F"/>
<path d="M269.019 245.647C257.556 245.647 248.259 236.359 248.259 224.887C248.259 213.425 257.556 204.128 269.019 204.128C280.49 204.128 289.779 213.425 289.779 224.887C289.779 236.359 280.49 245.647 269.019 245.647ZM316.114 214.406L306.732 213.044C305.556 210.201 305.235 209.44 304.059 206.598L309.727 199.001C311.241 196.971 311.038 194.145 309.245 192.36L301.546 184.653C299.761 182.868 296.936 182.665 294.906 184.18L287.309 189.848C284.466 188.663 283.705 188.359 280.863 187.183L279.501 177.801C279.137 175.297 276.997 173.444 274.467 173.444H263.58C261.05 173.444 258.91 175.297 258.538 177.801L257.184 187.183C254.333 188.359 253.572 188.663 250.729 189.848L243.133 184.18C241.111 182.665 238.277 182.868 236.492 184.653L228.794 192.36C227.009 194.145 226.806 196.971 228.311 199.001L233.988 206.598C232.804 209.44 232.49 210.201 231.315 213.044L221.933 214.406C219.429 214.77 217.576 216.918 217.576 219.439V230.327C217.576 232.865 219.429 235.005 221.933 235.369L231.315 236.731C232.49 239.573 232.804 240.335 233.988 243.177L228.311 250.774C226.806 252.804 227.009 255.63 228.794 257.415L236.492 265.113C238.277 266.906 241.111 267.109 243.133 265.595L250.729 259.927C253.572 261.103 254.333 261.425 257.184 262.6L258.538 271.982C258.91 274.478 261.05 276.339 263.58 276.339H274.467C276.997 276.339 279.137 274.478 279.501 271.982L280.863 262.6C283.705 261.425 284.466 261.103 287.309 259.927L294.906 265.595C296.936 267.109 299.761 266.906 301.546 265.113L309.245 257.415C311.038 255.63 311.241 252.796 309.727 250.774L304.042 243.16C305.218 240.326 305.531 239.565 306.707 236.731L316.114 235.369C318.609 235.005 320.471 232.865 320.471 230.327V219.439C320.471 216.918 318.609 214.77 316.114 214.406Z" fill="#2E303F"/>
<rect opacity="0.1" x="273" width="63" height="63" fill="#50B1A2"/>
<rect opacity="0.1" x="240" y="324" width="39" height="39" fill="#50B1A2"/>
<rect opacity="0.1" y="264" width="45" height="45" fill="#50B1A2"/>
</svg>
