<svg width="336" height="363" viewBox="0 0 336 363" fill="none" xmlns="http://www.w3.org/2000/svg">
<path d="M121.216 157.031V107.186C121.216 105.89 122.255 104.84 123.565 104.84H148.502C153.881 104.84 158.222 100.482 158.222 95.1051V70.1236C158.222 68.8282 159.278 67.778 160.571 67.778H225.085C229.153 67.778 232.387 71.0632 232.387 75.0889V123.644L246.158 108.554V75.0889C246.158 63.473 236.745 54.0564 225.119 54.0564H158.852C153.269 54.0564 147.958 56.2455 144.009 60.1946L113.624 90.6096C109.641 94.5587 107.445 99.8355 107.445 105.466V157.031C109.709 156.681 111.99 156.522 114.339 156.522C116.671 156.522 118.935 156.681 121.216 157.031Z" fill="#2E303F"/>
<path d="M232.387 194.679V203.085C232.387 207.151 229.153 210.396 225.084 210.396H163.431C163.005 215.205 161.865 219.857 160.111 224.158H225.084C236.693 224.158 246.158 214.697 246.158 203.085V181.075L238.14 189.872C236.421 191.748 234.498 193.389 232.387 194.679Z" fill="#2E303F"/>
<path d="M190.139 194.25C189.271 191.318 189.271 188.15 190.255 185.14L191.741 180.527H156.679C159.215 184.709 161.134 189.324 162.252 194.25H190.139Z" fill="#2E303F"/>
<path d="M207.702 150.711H143.865C140.071 150.711 136.982 153.8 136.982 157.592C136.982 161.384 140.071 164.473 143.865 164.473H197.077C198.319 161.696 199.964 159.195 202.029 156.927L207.702 150.711Z" fill="#2E303F"/>
<path d="M209.759 120.92H143.86C140.054 120.92 136.989 123.997 136.989 127.793C136.989 131.589 140.054 134.666 143.86 134.666H209.759C213.565 134.666 216.63 131.589 216.63 127.793C216.63 123.997 213.565 120.92 209.759 120.92Z" fill="#2E303F"/>
<path d="M209.759 91.1153H179.041C175.252 91.1153 172.17 94.1938 172.17 97.9898C172.17 101.786 175.252 104.864 179.041 104.864H209.759C213.565 104.864 216.63 101.786 216.63 97.9898C216.63 94.1938 213.565 91.1153 209.759 91.1153Z" fill="#2E303F"/>
<path d="M206.546 193.393L223.569 186.175C224.786 185.658 225.919 184.979 226.984 184.196L208.727 167.536C208.034 168.664 207.459 169.854 207.054 171.119L201.424 188.73C200.444 191.83 203.554 194.663 206.546 193.393Z" fill="#2E303F"/>
<path d="M277.345 121.972L266.079 111.692C263.994 109.796 260.773 109.944 258.895 112.022L216.361 158.631L235.156 175.773L277.672 129.164C279.567 127.086 279.412 123.867 277.345 121.972Z" fill="#2E303F"/>
<path d="M131.315 202.249L113.703 219.859C112.569 221.005 111.072 221.577 109.559 221.577C108.063 221.577 106.55 221.005 105.416 219.859L96.6674 211.11C94.3817 208.82 94.3817 205.107 96.6674 202.818C98.9531 200.526 102.669 200.527 104.955 202.816L109.559 207.419L123.027 193.956C125.313 191.666 129.029 191.666 131.315 193.956C133.6 196.245 133.6 199.96 131.315 202.249ZM114.345 168.245C93.5759 168.245 76.7539 185.07 76.7539 205.825C76.7539 226.581 93.5759 243.406 114.345 243.406C135.097 243.406 151.919 226.581 151.919 205.825C151.919 185.07 135.097 168.245 114.345 168.245Z" fill="#2E303F"/>
<rect opacity="0.1" x="273" width="63" height="63" fill="#50B1A2"/>
<rect opacity="0.1" x="240" y="324" width="39" height="39" fill="#50B1A2"/>
<rect opacity="0.1" y="264" width="45" height="45" fill="#50B1A2"/>
</svg>
