<svg width="336" height="288" viewBox="0 0 336 288" fill="none" xmlns="http://www.w3.org/2000/svg">
<path d="M161.662 181.919C160.422 182.518 159.193 182.918 157.953 183.319C157.537 183.518 157.338 183.718 157.338 184.118L156.099 194.909C155.891 196.707 154.453 197.906 152.599 197.906H142.911C141.057 197.906 139.619 196.507 139.411 194.909L138.181 184.118C138.181 183.718 137.973 183.319 137.556 183.319C136.317 182.918 135.087 182.319 133.848 181.919C133.431 181.72 133.025 181.72 132.817 182.119L124.16 188.914C122.732 190.113 120.67 189.912 119.43 188.714L112.836 181.919C111.606 180.719 111.398 178.722 112.628 177.323L119.638 168.93C119.847 168.73 119.847 168.131 119.847 167.931C119.222 166.731 118.815 165.533 118.399 164.334C118.191 163.934 117.982 163.735 117.576 163.735L106.45 162.536C104.596 162.335 103.356 160.937 103.356 159.138V149.946C103.356 148.147 104.804 146.749 106.45 146.549L117.576 145.35C117.982 145.35 118.399 144.95 118.399 144.751C118.815 143.551 119.43 142.353 119.847 141.153C120.055 140.753 120.055 140.354 119.638 140.154L112.628 131.761C111.398 130.363 111.606 128.364 112.836 127.165L119.638 120.57C120.868 119.372 122.93 119.172 124.368 120.371L133.025 127.165C133.431 127.364 133.848 127.364 134.056 127.364C135.295 126.765 136.525 126.366 137.765 125.966C138.181 125.767 138.389 125.566 138.389 125.167L139.619 114.376C139.817 112.577 141.265 111.378 143.119 111.378H152.797C154.651 111.378 156.099 112.777 156.307 114.376L157.537 125.167C157.537 125.566 157.745 125.966 158.152 125.966C159.391 126.366 160.631 126.965 161.87 127.364C162.277 127.564 162.693 127.564 162.901 127.165L171.548 120.371C172.986 119.172 175.048 119.372 176.278 120.57L183.08 127.165C184.32 128.365 184.528 130.363 183.288 131.761L176.278 140.154C176.079 140.554 176.079 140.953 176.079 141.153C176.694 142.353 177.111 143.551 177.527 144.751C177.726 145.15 177.934 145.35 178.35 145.35L189.466 146.549C191.32 146.749 192.56 148.147 192.56 149.946V159.338C192.56 161.136 191.122 162.536 189.466 162.736L178.35 163.934C177.934 163.934 177.527 164.134 177.527 164.533C177.111 165.733 176.486 166.931 176.079 168.131C175.871 168.531 175.871 168.93 176.278 169.13L183.288 177.523C184.32 178.922 184.32 180.92 183.08 182.119L176.278 188.714C174.85 189.712 172.787 189.912 171.34 188.714L162.693 181.919C162.485 181.72 161.87 181.72 161.662 181.919ZM220.572 173.526V103.584C220.572 93.3934 211.925 84.9999 201.415 84.9999H96.1476C85.6467 84.9999 77 93.3934 77 103.584V207.698C77 218.09 85.6467 226.282 96.1476 226.282H166.193L220.572 173.526Z" fill="#2E303F"/>
<path d="M242.111 189.544L195.164 234.966C193.93 236.167 191.86 236.167 190.617 234.966C189.373 233.766 189.373 231.765 190.617 230.564L237.564 185.142C238.797 183.941 240.867 183.941 242.111 185.142C243.344 186.342 243.344 188.343 242.111 189.544ZM237.35 167.733L170.563 232.366C175.11 235.367 179.657 239.169 182.96 242.37C186.274 245.571 190.209 249.774 193.308 254.376L260.094 189.743C257.821 186.342 254.518 182.341 249.961 177.737C245.006 173.136 240.867 169.934 237.35 167.733Z" fill="#2E303F"/>
<path d="M166.707 237.21L161.036 258.257C160.205 261.037 162.926 263.618 165.856 262.823L188.309 257.462C186.003 254.285 182.856 250.513 178.453 246.344C174.039 242.372 170.061 239.394 166.707 237.21Z" fill="#2E303F"/>
<path d="M270.663 167.892L259.383 156.748C256.303 153.709 251.376 153.709 248.296 156.748L242.35 162.624C246.868 165.663 251.376 169.513 254.66 172.755C257.945 175.996 261.841 180.251 264.921 184.911L270.867 179.036C273.744 175.794 273.744 170.931 270.663 167.892Z" fill="#2E303F"/>
<rect opacity="0.1" x="253" width="63" height="63" fill="#50B1A2"/>
<rect opacity="0.1" x="297" y="249" width="39" height="39" fill="#50B1A2"/>
<rect opacity="0.1" y="243" width="45" height="45" fill="#50B1A2"/>
</svg>
