<svg width="336" height="363" viewBox="0 0 336 363" fill="none" xmlns="http://www.w3.org/2000/svg">
<path d="M187.925 92.7451C184.495 92.7451 181.713 95.5227 181.713 98.9495C181.713 102.375 184.495 105.154 187.925 105.154C208.282 105.154 224.857 121.721 224.857 142.088C224.857 145.514 227.639 148.292 231.054 148.292C234.484 148.292 237.266 145.514 237.266 142.088C237.266 114.879 215.127 92.7451 187.925 92.7451Z" fill="#2E303F"/>
<path d="M297.071 229.379L267.614 199.907C265.089 197.294 260.9 197.294 258.193 199.907L257.407 200.689L248.44 191.718C259.6 178.213 266.223 160.96 266.223 142.137C266.223 98.9166 231.095 63.8027 187.969 63.8027C153.461 63.8027 124.095 86.1963 113.722 117.301L114.508 116.954C118.787 115.039 123.838 115.039 128.102 116.954H128.193L130.098 117.825C139.519 95.1679 161.914 79.3114 187.969 79.3114C222.552 79.3114 250.708 107.457 250.708 142.137C250.708 176.734 222.552 204.878 187.969 204.878C183.78 204.878 179.682 204.439 175.765 203.658C174.722 208.711 171.41 212.979 166.617 215.158L163.562 216.553C171.229 219.08 179.516 220.387 187.969 220.387C206.795 220.387 224.049 213.766 237.552 202.61L246.519 211.583L245.733 212.369C243.117 215.067 243.117 219.254 245.733 221.781L275.205 251.253C280.785 256.916 289.843 256.916 295.513 251.253L297.071 249.683C302.741 244.02 302.741 234.958 297.071 229.379Z" fill="#2E303F"/>
<path d="M123.614 126.904C122.888 126.571 122.119 126.403 121.307 126.403C120.51 126.403 119.727 126.571 119.001 126.904L83.8174 142.991L121.307 160.13L158.797 142.991L123.614 126.904Z" fill="#2E303F"/>
<path d="M77.293 200.186C77.293 202.349 78.5646 204.328 80.535 205.226L115.679 221.295V169.941L77.293 152.391V200.186Z" fill="#2E303F"/>
<path d="M126.94 169.943V221.299L162.094 205.23C164.065 204.33 165.336 202.353 165.336 200.189V152.395L126.94 169.943Z" fill="#2E303F"/>
<rect opacity="0.1" x="273" width="63" height="63" fill="#50B1A2"/>
<rect opacity="0.1" x="240" y="324" width="39" height="39" fill="#50B1A2"/>
<rect opacity="0.1" y="264" width="45" height="45" fill="#50B1A2"/>
</svg>
