<svg width="336" height="363" viewBox="0 0 336 363" fill="none" xmlns="http://www.w3.org/2000/svg">
<path d="M198.339 185.58C189.613 185.597 182.559 178.568 182.559 169.881C182.535 161.195 189.564 154.105 198.29 154.087C206.966 154.073 214.02 161.134 214.044 169.82C214.044 178.506 207.04 185.563 198.339 185.58ZM245.284 188.564C241.351 185.828 238.795 181.537 238.353 176.766C235.6 146.704 223.114 126.608 212.766 114.83C205.073 106.046 191.285 106.083 183.616 114.899C173.318 126.724 160.906 146.873 158.3 176.953C157.882 181.696 155.326 185.966 151.418 188.684C145.47 192.826 137.507 200.774 137.507 213.653L137.556 230.645C137.556 235.302 142.226 238.52 146.576 236.89L166.903 229.288L169.754 246.933C170.516 251.554 174.497 254.945 179.192 254.936L217.707 254.859C222.377 254.85 226.358 251.45 227.096 246.83L229.922 229.167L250.322 236.686C254.673 238.298 259.318 235.061 259.318 230.409L259.269 213.417C259.269 200.683 251.281 192.732 245.284 188.564Z" fill="#2E303F"/>
<path d="M176.545 264.486C172.832 264.486 169.842 267.485 169.842 271.191V284.868C169.842 288.566 172.832 291.564 176.545 291.568C178.401 291.566 180.065 290.816 181.271 289.603C182.5 288.39 183.248 286.712 183.248 284.863V271.182C183.248 267.485 180.234 264.486 176.545 264.486Z" fill="#2E303F"/>
<path d="M198.421 264.491C194.712 264.486 191.705 267.488 191.705 271.19V292.49C191.729 296.188 194.712 299.187 198.421 299.185C200.264 299.187 201.937 298.435 203.149 297.223C204.362 296.013 205.113 294.335 205.113 292.485V271.185C205.113 267.485 202.107 264.486 198.421 264.491Z" fill="#2E303F"/>
<path d="M220.304 264.487C216.623 264.49 213.624 267.481 213.6 271.182V284.852C213.575 288.553 216.599 291.562 220.304 291.562C222.133 291.559 223.815 290.813 225.034 289.599C226.253 288.385 226.985 286.71 227.009 284.864V271.192C227.009 267.491 224.01 264.485 220.304 264.487Z" fill="#2E303F"/>
<path d="M184.917 62.6911H192.164V84.7926C192.164 88.212 194.936 90.9844 198.365 90.9844C201.794 90.9844 204.543 88.212 204.543 84.7926V62.6911H211.814C213.711 62.6911 215.438 61.6088 216.264 59.9065C217.091 58.2041 216.872 56.1734 215.705 54.6827L202.256 37.5496C200.384 35.159 196.347 35.159 194.474 37.5496L181.026 54.6827C179.858 56.1734 179.639 58.2041 180.466 59.9065C181.293 61.6088 183.02 62.6911 184.917 62.6911Z" fill="#2E303F"/>
<path d="M116.851 100.844C117.378 101.029 117.928 101.115 118.455 101.115C119.771 101.115 121.015 100.607 121.973 99.6646L127.094 94.5336L142.721 110.163C143.942 111.372 145.521 111.978 147.101 111.978C148.68 111.978 150.26 111.372 151.481 110.163C153.898 107.746 153.898 103.826 151.481 101.409L135.853 85.7818L140.974 80.6532C142.315 79.313 142.769 77.3266 142.147 75.5341C141.549 73.7416 139.946 72.4589 138.079 72.2316L116.444 69.6206C114.961 69.4578 113.429 69.9652 112.352 71.0373C111.275 72.1119 110.749 73.6244 110.94 75.1345L113.549 96.7569C113.788 98.6379 115.056 100.225 116.851 100.844Z" fill="#2E303F"/>
<path d="M125.723 150.673H103.615V143.424C103.615 141.53 102.545 139.802 100.831 138.969C99.1178 138.148 97.0951 138.36 95.5959 139.526L78.4621 152.967C77.2722 153.904 76.582 155.339 76.582 156.865C76.582 158.383 77.2722 159.818 78.4621 160.763L95.5959 174.206C96.5001 174.903 97.5709 175.26 98.6655 175.26C99.4032 175.26 100.141 175.096 100.831 174.762C102.545 173.932 103.615 172.204 103.615 170.308V163.054H125.723C129.126 163.054 131.91 160.284 131.91 156.865C131.91 153.445 129.126 150.673 125.723 150.673Z" fill="#2E303F"/>
<path d="M317.686 153.542L300.547 140.102C299.05 138.937 297.029 138.717 295.333 139.546C293.611 140.376 292.538 142.103 292.538 143.999V151.249H270.434C267.016 151.249 264.247 154.021 264.247 157.439C264.247 160.859 267.016 163.631 270.434 163.631H292.538V170.886C292.538 172.779 293.611 174.506 295.333 175.339C296.006 175.673 296.755 175.838 297.478 175.838C298.576 175.838 299.649 175.479 300.547 174.783L317.686 161.338C318.884 160.4 319.582 158.958 319.582 157.439C319.582 155.917 318.884 154.48 317.686 153.542Z" fill="#2E303F"/>
<path d="M249.442 112.382C251.025 112.382 252.608 111.778 253.821 110.571L269.432 94.9419L274.578 100.071C275.519 101.013 276.78 101.521 278.067 101.521C278.611 101.521 279.156 101.434 279.7 101.251C281.481 100.632 282.768 99.0465 282.99 97.1637L285.588 75.5401C285.786 74.0309 285.267 72.5193 284.178 71.4455C283.114 70.3767 281.605 69.872 280.096 70.0278L258.472 72.638C256.592 72.8656 254.984 74.1473 254.365 75.9434C253.747 77.7322 254.217 79.7188 255.553 81.0598L260.699 86.1886L245.063 101.817C242.638 104.235 242.638 108.151 245.063 110.571C246.275 111.778 247.858 112.382 249.442 112.382Z" fill="#2E303F"/>
<rect opacity="0.1" x="273" width="63" height="63" fill="#50B1A2"/>
<rect opacity="0.1" x="240" y="324" width="39" height="39" fill="#50B1A2"/>
<rect opacity="0.1" y="264" width="45" height="45" fill="#50B1A2"/>
</svg>
