<svg width="336" height="363" viewBox="0 0 336 363" fill="none" xmlns="http://www.w3.org/2000/svg">
<path d="M176.56 216.182C147.084 216.182 123.187 192.306 123.187 162.837C123.187 133.367 147.084 109.484 176.56 109.484C206.014 109.484 229.889 133.367 229.889 162.837C229.889 192.306 206.014 216.182 176.56 216.182ZM267.456 142.599L249.362 139.96C247.094 134.474 246.472 133.009 244.205 127.514L255.141 112.856C258.054 108.935 257.676 103.471 254.208 100.021L239.359 85.156C235.913 81.7082 230.445 81.3191 226.532 84.2334L211.861 95.1837C206.37 92.9007 204.903 92.2983 199.412 90.0242L196.789 71.9094C196.078 67.079 191.943 63.5 187.053 63.5H166.046C161.155 63.5 157.021 67.079 156.309 71.9094L153.686 90.0242C148.195 92.2983 146.728 92.9007 141.238 95.1837L126.566 84.2334C122.654 81.3191 117.185 81.7082 113.74 85.156L98.8905 100.021C95.4227 103.471 95.0448 108.935 97.9568 112.841L108.894 127.514C106.626 133.009 106.026 134.474 103.759 139.96L85.6418 142.599C80.7958 143.295 77.2168 147.438 77.2168 152.313V173.336C77.2168 178.22 80.7958 182.356 85.6418 183.066L103.737 185.691C106.026 191.184 106.626 192.649 108.894 198.151L97.9568 212.809C95.0448 216.724 95.4227 222.187 98.8905 225.636L113.74 240.493C117.185 243.942 122.654 244.346 126.566 241.424L141.238 230.474C146.728 232.748 148.195 233.366 153.686 235.632L156.309 253.748C157.021 258.57 161.155 262.156 166.046 262.156H187.053C191.943 262.156 196.078 258.57 196.789 253.748L199.412 235.632C204.903 233.366 206.37 232.748 211.861 230.474L226.532 241.424C230.445 244.346 235.913 243.942 239.359 240.493L254.208 225.636C257.676 222.187 258.054 216.716 255.141 212.809L244.16 198.105C246.427 192.634 247.028 191.169 249.295 185.698L267.456 183.066C272.303 182.356 275.882 178.22 275.882 173.336V152.313C275.882 147.438 272.303 143.295 267.456 142.599Z" fill="#2E303F"/>
<path d="M172.922 166.415L161.604 159.884V176.717L154.369 172.491V155.709L141.713 148.401V180.242C141.713 182.279 142.814 184.158 144.564 185.171L172.922 201.547V166.415Z" fill="#2E303F"/>
<path d="M158.213 149.566L173.285 140.99L180.483 145.141L165.477 153.75L176.535 160.143L207.747 142.126L179.392 125.759C177.626 124.745 175.466 124.745 173.7 125.759L145.345 142.126L158.213 149.566Z" fill="#2E303F"/>
<path d="M180.179 166.417V201.547L208.541 185.172C210.288 184.157 211.379 182.279 211.379 180.242V148.4L180.179 166.417Z" fill="#2E303F"/>
<rect opacity="0.1" x="273" width="63" height="63" fill="#3b53b1"/>
<rect opacity="0.1" x="240" y="324" width="39" height="39" fill="#3b53b1"/>
<rect opacity="0.1" y="264" width="45" height="45" fill="#3b53b1"/>
</svg>
