<svg width="336" height="363" viewBox="0 0 336 363" fill="none" xmlns="http://www.w3.org/2000/svg">
<path d="M181.411 121.824H153.87C151.173 121.824 148.729 119.614 148.729 116.664C148.729 113.714 151.173 111.501 153.87 111.501H175.764C178.208 114.942 180.189 118.383 181.411 121.824Z" fill="#2E303F"/>
<path d="M239.674 221.612H213.857V166.556C212.376 166.803 210.916 167.047 209.436 167.047C207.483 167.047 205.508 166.802 203.534 166.311V221.612H112.109C109.147 221.612 106.937 223.823 106.937 226.774V234.148C106.937 239.801 102.28 244.471 96.6142 244.471C90.9699 244.471 86.2912 239.798 86.2912 234.148V100.932C86.2912 97.9829 85.5616 94.7873 84.0808 92.0832L83.351 90.8535H165.676C164.947 87.4132 164.947 83.973 164.947 80.5328H65.6455C54.3355 80.5328 45 89.8705 45 101.176V110.518C45 113.467 47.468 115.68 50.1721 115.68H75.9685V234.392C75.9685 245.698 85.3256 255.038 96.6142 255.038H224.179C235.489 255.038 244.825 245.945 244.825 234.392V227.018C244.825 224.07 242.615 221.612 239.674 221.612Z" fill="#2E303F"/>
<path d="M182.884 148.616H153.876C151.178 148.616 148.732 146.158 148.732 143.453C148.732 140.504 151.178 138.293 153.876 138.293H182.631V145.911C182.631 146.894 182.631 147.878 182.884 148.616Z" fill="#2E303F"/>
<path d="M184.105 165.328H153.882C150.925 165.328 148.729 167.539 148.729 170.49C148.729 173.438 150.925 175.651 153.882 175.651H184.105C187.062 175.651 189.28 173.438 189.28 170.49C189.28 167.539 187.062 165.328 184.105 165.328Z" fill="#2E303F"/>
<path d="M184.105 192.119H153.882C150.925 192.119 148.729 194.33 148.729 197.279C148.729 200.229 150.925 202.44 153.882 202.44H184.105C187.062 202.44 189.28 200.229 189.28 197.279C189.28 194.33 187.062 192.119 184.105 192.119Z" fill="#2E303F"/>
<path d="M130.045 127.232L118.995 138.291C118.245 139.03 117.267 139.275 116.268 139.275C115.29 139.275 114.312 138.782 113.584 138.291L108.173 132.884C106.695 131.411 106.695 128.951 108.173 127.477C109.65 126.002 112.106 126.002 113.584 127.477L116.268 130.181L124.634 121.825C126.112 120.349 128.568 120.349 130.045 121.825C130.795 122.562 131.024 123.544 131.024 124.528C131.273 125.511 130.795 126.493 130.045 127.232ZM133.001 110.518H105.467C102.262 110.518 99.8066 112.976 99.8066 116.171V143.945C99.8066 147.14 102.262 149.598 105.467 149.598H133.25C136.435 149.598 138.89 147.14 138.89 143.945V116.171C138.89 112.976 136.185 110.518 133.001 110.518Z" fill="#2E303F"/>
<path d="M130.045 181.058L119.224 192.119C118.495 192.856 117.517 193.101 116.518 193.101C115.54 193.101 114.562 192.61 113.813 192.119L108.422 186.71C106.945 185.237 106.945 182.779 108.422 181.304C109.879 179.828 112.356 179.828 113.813 181.304L116.518 184.007L124.884 175.651C126.362 174.176 128.818 174.176 130.295 175.651C131.024 176.388 131.273 177.37 131.273 178.355C131.273 179.337 130.795 180.321 130.045 181.058ZM133.001 164.344H105.467C102.262 164.344 99.8066 166.802 99.8066 169.997V197.771C99.8066 200.966 102.262 203.424 105.467 203.424H133.25C136.435 203.424 138.89 200.966 138.89 197.771V169.997C138.89 166.802 136.185 164.344 133.001 164.344Z" fill="#2E303F"/>
<path d="M225.423 133.13H193.458C192.476 133.13 191.75 133.866 191.75 134.85V145.909C191.75 146.893 192.476 147.63 193.458 147.63H197.152C198.134 153.53 203.302 157.954 209.43 157.954C215.58 157.954 220.747 153.53 221.729 147.63H225.423C226.384 147.63 227.131 146.893 227.131 145.909V134.85C227.131 133.866 226.384 133.13 225.423 133.13Z" fill="#2E303F"/>
<path d="M209.444 39.7314C211.635 39.7314 213.613 37.764 213.613 35.5541V25.4765C213.613 23.2644 211.635 21.297 209.444 21.297C207.232 21.297 205.254 23.2644 205.254 25.4765V35.7987C205.254 38.0107 207.232 39.7314 209.444 39.7314Z" fill="#2E303F"/>
<path d="M182.153 43.912C182.871 45.1396 184.35 45.877 185.829 45.877C186.569 45.877 187.308 45.6319 187.794 45.3868C189.759 44.1571 190.499 41.6999 189.273 39.7329L184.118 30.8846C182.871 28.9197 180.421 28.1823 178.456 29.4099C176.491 30.6395 175.751 33.0967 176.977 35.0637L182.153 43.912Z" fill="#2E303F"/>
<path d="M170.608 55.7085L161.737 50.5475C159.782 49.3177 157.322 50.0556 156.103 52.0211C154.863 53.9888 155.598 56.4464 157.575 57.6741L166.425 62.8351C167.161 63.3291 167.896 63.3291 168.38 63.3291C169.852 63.3291 171.092 62.5912 172.059 61.3614C173.299 59.3958 172.564 56.6923 170.608 55.7085Z" fill="#2E303F"/>
<path d="M250.244 63.3271C250.977 63.3271 251.711 63.0812 252.207 62.8352L261.054 57.6739C263.017 56.444 263.751 53.9864 262.521 52.0207C261.291 50.055 258.831 49.317 256.868 50.5448L248.021 55.7061C246.057 56.936 245.324 59.3936 246.554 61.3593C247.525 62.5892 248.755 63.3271 250.244 63.3271Z" fill="#2E303F"/>
<path d="M230.802 45.6307C231.553 46.124 232.282 46.124 232.776 46.124C234.256 46.124 235.478 45.3861 236.465 44.1571L241.634 35.3072C242.857 33.3424 242.128 30.8844 240.154 29.6554C238.181 28.4263 235.736 29.1642 234.492 31.1311L229.344 39.9788C228.357 41.9436 228.85 44.4016 230.802 45.6307Z" fill="#2E303F"/>
<path d="M231.554 88.3961C231.059 90.3643 229.34 91.5912 227.364 91.5912C227.127 91.5912 226.633 91.5912 226.397 91.5912C224.184 91.1013 222.701 88.6432 223.432 86.4301C224.914 80.532 222.465 76.3528 220.982 74.3867C218.275 70.6996 214.343 68.7335 210.174 68.4886C207.961 68.4886 205.984 66.5225 206.242 64.0644C206.242 61.8534 208.197 59.8853 210.668 60.1324C217.544 60.3773 223.689 63.8195 227.858 69.4727C230.071 72.4207 233.767 79.3029 231.554 88.3961ZM211.163 47.597C199.603 47.1049 188.795 52.0211 181.661 61.3614C177.729 66.2776 175.516 72.1757 174.785 78.5659C173.797 88.1512 176.247 97.2465 182.155 104.619C186.324 110.027 189.289 115.188 191.008 120.349L191.738 122.56C191.975 123.544 192.963 124.281 194.188 124.281H225.666C226.633 124.281 227.621 123.544 228.116 122.56L228.846 120.349C230.565 115.188 233.273 110.272 237.441 105.111C240.643 100.932 243.113 96.5074 244.338 91.3463C249.001 68.9807 232.284 48.5811 211.163 47.597Z" fill="#2E303F"/>
<rect opacity="0.1" x="273" width="63" height="63" fill="#50B1A2"/>
<rect opacity="0.1" x="240" y="324" width="39" height="39" fill="#50B1A2"/>
<rect opacity="0.1" y="264" width="45" height="45" fill="#50B1A2"/>
</svg>
