<svg width="70" height="70" viewBox="0 0 70 70" fill="none" xmlns="http://www.w3.org/2000/svg">
<path d="M24.1192 29.6944L45.7973 57.1934H51.592C52.8017 57.0972 53.8976 56.6706 54.8076 56.0056L54.7901 56.0188C55.6279 55.3253 56.2426 54.3913 56.5314 53.3216L56.5401 53.2844V39.7809C56.7326 37.1997 58.7932 35.1587 61.3636 34.9969H61.3789C58.3718 33.9031 56.7589 32.2085 56.5401 29.9131V17.0112C56.247 15.8431 55.6323 14.8456 54.7967 14.0909L54.7923 14.0866C54.0004 13.3647 52.9679 12.8944 51.8304 12.8025H51.8129H45.9351V40.6844L24.1214 12.7741H18.0248C16.6839 12.9425 15.507 13.5375 14.6057 14.4147C13.7548 15.4844 13.2145 16.8341 13.1336 18.3062V18.3238V31.5822C12.2717 33.3606 10.6267 34.6447 8.66012 34.9925L8.62293 34.9969C10.7514 35.255 12.4795 36.7206 13.1226 38.6763L13.1336 38.7134V51.7531C13.1467 53.2013 13.7045 54.5138 14.6123 55.5025L14.6079 55.4981C15.2817 56.3359 16.3076 56.8675 17.4582 56.8675C17.5129 56.8675 17.5676 56.8653 17.6223 56.8631H17.6136H24.0645L24.1192 29.6944ZM7.0348 7.00562C9.8173 4.08969 13.7154 2.25875 18.0401 2.19531H18.0511H52.4932C56.6451 2.33094 60.3464 4.15312 62.9539 6.99469L62.9648 7.00562C65.8961 9.6875 67.7445 13.5091 67.8036 17.7659V17.7769V52.685C67.7029 56.7166 65.9595 60.3216 63.2207 62.8744L63.212 62.8831C60.4032 65.8428 56.4723 67.7109 52.1039 67.8028H52.0864H18.2436C13.9342 67.7591 10.012 66.1403 7.0173 63.4956L7.03699 63.5109C4.04887 60.5644 2.19824 56.4716 2.19824 51.9456C2.19824 51.88 2.19824 51.8122 2.20043 51.7466V51.7575V17.86C2.20043 17.8141 2.20043 17.7594 2.20043 17.7047C2.20043 13.45 4.06637 9.63062 7.02387 7.02094L7.03918 7.00781L7.0348 7.00562Z" fill="#2E303F"/>
</svg>
