<svg width="31" height="30" viewBox="0 0 31 30" fill="none" xmlns="http://www.w3.org/2000/svg">
<path d="M26.75 5.625H4.25C3.75272 5.625 3.27581 5.82254 2.92417 6.17417C2.57254 6.52581 2.375 7.00272 2.375 7.5V22.5C2.375 22.9973 2.57254 23.4742 2.92417 23.8258C3.27581 24.1775 3.75272 24.375 4.25 24.375H26.75C27.2473 24.375 27.7242 24.1775 28.0758 23.8258C28.4275 23.4742 28.625 22.9973 28.625 22.5V7.5C28.625 7.00272 28.4275 6.52581 28.0758 6.17417C27.7242 5.82254 27.2473 5.625 26.75 5.625ZM24.6875 7.5L15.5 13.8562L6.3125 7.5H24.6875ZM4.25 22.5V8.35312L14.9656 15.7687C15.1226 15.8776 15.309 15.936 15.5 15.936C15.691 15.936 15.8774 15.8776 16.0344 15.7687L26.75 8.35312V22.5H4.25Z" fill="#2E303F"/>
</svg>
