<svg width="33" height="32" viewBox="0 0 33 32" fill="none" xmlns="http://www.w3.org/2000/svg">
<path d="M7.92684 10.5159C7.54584 8.00391 9.31984 5.74191 12.0298 4.91191C12.511 4.76464 13.0302 4.80649 13.4816 5.02892C13.933 5.25136 14.2825 5.63762 14.4588 6.10891L15.3278 8.42891C15.4676 8.8021 15.4926 9.20852 15.3998 9.59604C15.3069 9.98357 15.1005 10.3345 14.8068 10.6039L12.2218 12.9749C12.0943 13.092 11.9993 13.2402 11.9461 13.4049C11.8928 13.5696 11.8831 13.7453 11.9178 13.9149L11.9408 14.0189L12.0048 14.2799C12.0618 14.4999 12.1478 14.8099 12.2688 15.1799C12.5088 15.9149 12.8918 16.9029 13.4618 17.8899C14.0318 18.8769 14.6958 19.7029 15.2118 20.2779C15.4806 20.5773 15.7615 20.8655 16.0538 21.1419L16.1338 21.2159C16.2631 21.3304 16.4199 21.4095 16.5888 21.4454C16.7578 21.4813 16.9331 21.4729 17.0978 21.4209L20.4438 20.3679C20.824 20.2484 21.2312 20.2452 21.6132 20.3587C21.9952 20.4722 22.3346 20.6972 22.5878 21.0049L24.1708 22.9269C24.8308 23.7269 24.7528 24.9029 23.9938 25.6099C21.9198 27.5429 19.0678 27.9399 17.0838 26.3439C14.652 24.3825 12.6018 21.9903 11.0358 19.2869C9.45689 16.5853 8.40209 13.6098 7.92684 10.5169V10.5159ZM14.0128 14.0459L16.1588 12.0779C16.7461 11.5391 17.1591 10.8372 17.3447 10.0622C17.5304 9.28713 17.4803 8.47429 17.2008 7.72791L16.3308 5.40791C15.9759 4.46004 15.2728 3.68321 14.365 3.23577C13.4571 2.78834 12.4128 2.70399 11.4448 2.99991C8.07984 4.02991 5.37784 7.04691 5.94984 10.8159C6.46283 14.1579 7.60175 17.3732 9.30684 20.2929C10.9959 23.2083 13.2071 25.7879 15.8298 27.9029C18.8048 30.2929 22.7788 29.4779 25.3578 27.0729C26.0958 26.3851 26.5436 25.4417 26.6099 24.4352C26.6762 23.4286 26.3561 22.4346 25.7148 21.6559L24.1318 19.7339C23.6253 19.1183 22.9463 18.6682 22.1821 18.4412C21.4179 18.2142 20.6033 18.2207 19.8428 18.4599L17.0658 19.3339C16.9415 19.2061 16.8198 19.0757 16.7008 18.9429C16.1301 18.3115 15.6252 17.6236 15.1938 16.8899C14.7739 16.1494 14.4305 15.368 14.1688 14.5579C14.1134 14.3883 14.0613 14.2176 14.0128 14.0459Z" fill="#2E303F"/>
</svg>
