<?xml version="1.0" encoding="UTF-8"?>
<svg xmlns="http://www.w3.org/2000/svg" id="Layer_1" version="1.1" viewBox="0 0 584 533">
  <defs>
    <style>
      .st0 {
        fill: #1a252a;
      }

      .st1 {
        fill: #939393;
      }

      .st2 {
        stroke: #30383b;
      }

      .st2, .st3 {
        stroke-width: 1.3px;
      }

      .st2, .st3, .st4 {
        fill: none;
      }

      .st3 {
        stroke: #545f64;
      }

      .st5 {
        fill: #f4f4f4;
      }

      .st6 {
        fill: #e6ff01;
      }

      .st7 {
        fill: #a9b7bd;
      }

      .st8 {
        fill: #fff;
      }

      .st4 {
        stroke: #f4f4f4;
        stroke-linecap: round;
        stroke-linejoin: round;
        stroke-width: 1.9px;
      }

      .st9 {
        fill: #ff288f;
      }

      .st10 {
        fill: #1376a4;
      }

      .st11 {
        fill: #545f64;
      }

      .st12 {
        fill: #1b1b1b;
      }

      .st13 {
        fill: #d4dfe4;
      }
    </style>
  </defs>
  <g>
    <rect class="st0" x="26" y="57.9" width="516.8" height="433.8" rx="11.1" ry="11.1"></rect>
    <path class="st3" d="M92.5,415.9h423.6"></path>
    <path class="st2" d="M92.5,332h423.6"></path>
    <path class="st2" d="M92.5,248h423.6"></path>
    <path class="st2" d="M92.5,164h423.6"></path>
    <path class="st8" d="M109.4,442.4h3.6c2.2,0,3.4.9,3.4,2.5s-.7,1.9-1.9,2.1c1.3.2,2.2.8,2.2,2.2s-1.3,2.7-3.6,2.7h-3.8v-9.4ZM111.4,444v2.3h1.6c.9,0,1.4-.4,1.4-1.1s-.5-1.1-1.4-1.1h-1.6ZM111.4,447.9v2.4h1.7c1,0,1.5-.4,1.5-1.2s-.6-1.2-1.5-1.2h-1.7ZM121.3,451.9c-2.2,0-3.6-1.4-3.6-3.5s1.4-3.5,3.6-3.5,3.6,1.4,3.6,3.5-1.4,3.5-3.6,3.5ZM121.3,450.4c1.1,0,1.7-.8,1.7-2s-.7-2-1.7-2-1.7.8-1.7,2,.6,2,1.7,2ZM130,444.9c1.4,0,2.8.7,2.8,3.2v3.8h-1.9v-3.6c0-1.2-.4-1.8-1.4-1.8s-1.5.7-1.5,1.9v3.5h-1.9v-6.9h1.7l.2.9c.4-.5,1.1-.9,2.1-.9ZM139,442.4h1.9v9.4h-1.7l-.2-1c-.5.6-1.1,1-2.1,1-1.9,0-3.2-1.4-3.2-3.6s1.4-3.5,3.2-3.5,1.6.4,2.1.9v-3.4ZM137.3,450.4c1,0,1.7-.8,1.7-2s-.6-2-1.7-2-1.7.8-1.7,2,.7,2,1.7,2Z"></path>
    <circle class="st6" cx="97.2" cy="448.3" r="4.7"></circle>
    <path class="st8" d="M180.7,443.8h6.3v1.7h-4.3v2.1h3.5v1.7h-3.5v2.2h4.5v1.7h-6.5v-9.4ZM187.8,448.5c0-2.9,1.8-4.8,4.6-4.8s3.8,1.4,4,3.4h-2c-.2-1.1-1-1.7-2.1-1.7s-2.4,1.3-2.4,3.1.9,3.1,2.4,3.1,1.9-.7,2.1-1.7h2c-.2,2-1.8,3.4-4,3.4s-4.6-1.9-4.6-4.8ZM196.5,453.2l3.4-9.4h2.4l3.4,9.4h-2.2l-.7-2.1h-3.6l-.7,2.1h-2.1ZM199.9,449.5h2.5l-1.3-3.6-1.2,3.6Z"></path>
    <circle class="st1" cx="168.5" cy="449.6" r="4.7"></circle>
    <path class="st8" d="M244,453.2v-9.4h1.8l4,5.9v-5.9h2v9.4h-1.8l-4-5.9v5.9h-2ZM253.4,443.8h6.3v1.7h-4.3v2.1h3.5v1.7h-3.5v2.2h4.5v1.7h-6.5v-9.4ZM263.5,448.4l-2.9-4.6h2.4l1.9,3,1.9-3h2.2l-2.9,4.6,3.1,4.8h-2.5l-2-3.2-2,3.2h-2.2l3.1-4.8ZM270.2,443.8h2v9.4h-2v-9.4ZM277.1,453.2v-9.4h2v7.7h3.7v1.7h-5.8ZM287,453.3c-2.2,0-3.6-1.4-3.6-3.5s1.4-3.5,3.6-3.5,3.6,1.4,3.6,3.5-1.4,3.5-3.6,3.5ZM287,451.7c1.1,0,1.7-.8,1.7-2s-.7-2-1.7-2-1.7.8-1.7,2,.6,2,1.7,2ZM298.3,451.6h.2v1.6h-1c-1,0-1.3-.5-1.3-1.1-.5.8-1.2,1.2-2.3,1.2s-2.6-.7-2.6-2,1.1-2.3,3.2-2.3h1.4v-.3c0-.6-.5-1-1.3-1s-1.2.3-1.3.8h-1.8c.1-1.4,1.3-2.2,3.2-2.2s3.1.9,3.1,2.5v2.4c0,.4.2.4.4.4ZM296,450.4h0c0-.1-1.4-.1-1.4-.1-.8,0-1.3.3-1.3.9s.4.8,1,.8c1,0,1.6-.6,1.6-1.6ZM303.2,446.2c1.4,0,2.8.7,2.8,3.2v3.8h-1.9v-3.6c0-1.2-.4-1.8-1.4-1.8s-1.5.7-1.5,1.9v3.5h-1.9v-6.9h1.7l.2.9c.4-.5,1.1-.9,2.1-.9Z"></path>
    <circle class="st9" cx="231.7" cy="449.6" r="4.7"></circle>
    <path class="st8" d="M341.8,450.1h2c0,.9.8,1.6,2,1.6s1.6-.4,1.6-1.1-.8-1-2.3-1.3c-1.6-.3-3-.8-3-2.7s1.5-2.9,3.5-2.9,3.6,1.3,3.7,3h-2c0-.8-.7-1.3-1.7-1.3s-1.5.4-1.5,1.1.7.9,2.3,1.2c1.6.3,3,.8,3,2.7,0,1.7-1.6,3-3.7,3s-3.9-1.3-3.9-3.2ZM350.2,449.8c0-2.2,1.4-3.6,3.5-3.6s3.5,1.3,3.6,3.3c0,.2,0,.4,0,.6h-5c0,1,.6,1.7,1.6,1.7s1.3-.3,1.5-1h1.9c-.2,1.3-1.4,2.4-3.2,2.4s-3.7-1.4-3.7-3.5ZM352.2,448.9h3.1c-.1-.8-.7-1.3-1.6-1.3s-1.4.5-1.5,1.3ZM362.2,446.2c1.4,0,2.8.7,2.8,3.2v3.8h-1.9v-3.6c0-1.2-.4-1.8-1.4-1.8s-1.5.7-1.5,1.9v3.5h-1.9v-6.9h1.7l.2.9c.4-.5,1.1-.9,2.1-.9ZM367.1,443.4c.6,0,1.1.4,1.1,1.1s-.5,1.1-1.1,1.1-1.1-.5-1.1-1.1.5-1.1,1.1-1.1ZM366.2,446.3h1.9v6.9h-1.9v-6.9ZM372.8,453.3c-2.2,0-3.6-1.4-3.6-3.5s1.4-3.5,3.6-3.5,3.6,1.4,3.6,3.5-1.4,3.5-3.6,3.5ZM372.8,451.7c1.1,0,1.7-.8,1.7-2s-.7-2-1.7-2-1.7.8-1.7,2,.6,2,1.7,2ZM381.4,446.3h.3v1.7h-.8c-1.1,0-1.6.8-1.6,1.8v3.4h-1.9v-6.9h1.7l.2,1c.4-.6.9-1,2-1ZM386,453.2v-9.4h1.8l4,5.9v-5.9h2v9.4h-1.8l-4-5.9v5.9h-2ZM398.7,453.3c-2.2,0-3.6-1.4-3.6-3.5s1.4-3.5,3.6-3.5,3.6,1.4,3.6,3.5-1.4,3.5-3.6,3.5ZM398.7,451.7c1.1,0,1.7-.8,1.7-2s-.7-2-1.7-2-1.7.8-1.7,2,.6,2,1.7,2ZM403.8,451.2v-3.3h-1.1v-1.6h1.1v-1.9h1.9v1.9h1.6v1.6h-1.6v3c0,.5.2.7.7.7h1v1.6h-1.6c-1.3,0-2-.7-2-2ZM407.8,449.8c0-2.2,1.4-3.6,3.5-3.6s3.5,1.3,3.6,3.3c0,.2,0,.4,0,.6h-5c0,1,.6,1.7,1.6,1.7s1.3-.3,1.5-1h1.9c-.2,1.3-1.4,2.4-3.2,2.4s-3.7-1.4-3.7-3.5ZM409.8,448.9h3.1c-.1-.8-.7-1.3-1.6-1.3s-1.4.5-1.5,1.3Z"></path>
    <circle class="st8" cx="329.9" cy="449.6" r="4.7"></circle>
    <path class="st8" d="M454.7,443.8h7.5v1.7h-2.7v7.7h-2v-7.7h-2.7v-1.7ZM461.6,449.8c0-2.2,1.4-3.6,3.5-3.6s3.5,1.3,3.6,3.3c0,.2,0,.4,0,.6h-5c0,1,.6,1.7,1.6,1.7s1.3-.3,1.5-1h1.9c-.2,1.3-1.4,2.4-3.2,2.4s-3.7-1.4-3.7-3.5ZM463.6,448.9h3.1c-.1-.8-.7-1.3-1.6-1.3s-1.4.5-1.5,1.3ZM473.6,446.3h.3v1.7h-.8c-1.1,0-1.6.8-1.6,1.8v3.4h-1.9v-6.9h1.7l.2,1c.4-.6.9-1,2-1ZM483.1,446.2c1.3,0,2.5.7,2.5,3.2v3.8h-1.9v-3.9c0-1-.4-1.6-1.2-1.6s-1.4.6-1.4,1.7v3.8h-1.9v-3.9c0-1-.4-1.6-1.2-1.6s-1.4.6-1.4,1.7v3.8h-1.9v-6.9h1.7l.2.9c.4-.5,1-.9,2-.9.8,0,1.6.3,2.1,1.2.5-.7,1.3-1.2,2.4-1.2ZM490.3,453.2v-9.4h2v7.7h3.7v1.7h-5.8ZM500.1,453.3c-2.2,0-3.6-1.4-3.6-3.5s1.4-3.5,3.6-3.5,3.6,1.4,3.6,3.5-1.4,3.5-3.6,3.5ZM500.1,451.7c1.1,0,1.7-.8,1.7-2s-.7-2-1.7-2-1.7.8-1.7,2,.6,2,1.7,2ZM511.4,451.6h.2v1.6h-1c-1,0-1.3-.5-1.3-1.1-.5.8-1.2,1.2-2.3,1.2s-2.6-.7-2.6-2,1.1-2.3,3.2-2.3h1.4v-.3c0-.6-.5-1-1.3-1s-1.2.3-1.3.8h-1.8c.1-1.4,1.3-2.2,3.2-2.2s3.1.9,3.1,2.5v2.4c0,.4.2.4.4.4ZM509.1,450.4h0c0-.1-1.4-.1-1.4-.1-.8,0-1.3.3-1.3.9s.4.8,1,.8c1,0,1.6-.6,1.6-1.6ZM516.3,446.2c1.4,0,2.8.7,2.8,3.2v3.8h-1.9v-3.6c0-1.2-.4-1.8-1.4-1.8s-1.5.7-1.5,1.9v3.5h-1.9v-6.9h1.7l.2.9c.4-.5,1.1-.9,2.1-.9Z"></path>
    <circle class="st10" cx="442.9" cy="449.6" r="4.7"></circle>
    <path class="st7" d="M60.1,330.5h-7v-.6h7v.6ZM67.6,334.4h-.8v-2.8h-5.4v-.7l5.3-7h.9v7h1.6v.7h-1.6v2.8ZM66.8,325l-4.5,6h4.5v-6ZM71.8,334.4h-.8v-10.5h.8v7.5l4.6-4.6h1l-3.2,3.2,3.4,4.4h-.9l-3-3.9-1.8,1.8v2.1Z"></path>
    <rect class="st11" x="361.5" y="181.5" width="47.1" height="148"></rect>
    <rect class="st9" x="361.5" y="164" width="47.1" height="16.1"></rect>
    <rect class="st6" x="361.5" y="330.8" width="47.1" height="4"></rect>
    <rect class="st6" x="415.4" y="256.8" width="47.1" height="12.1"></rect>
    <rect class="st6" x="469.2" y="176.1" width="47.1" height="9.4"></rect>
    <rect class="st8" x="469" y="187" width="47" height="8"></rect>
    <rect class="st11" x="307.7" y="164" width="47.1" height="26"></rect>
    <rect class="st10" x="308" y="191" width="47" height="8"></rect>
    <rect class="st11" x="253.9" y="170.7" width="47.1" height="5.4"></rect>
    <rect class="st9" x="253.9" y="164" width="47.1" height="5.4"></rect>
    <rect class="st9" x="200.1" y="164" width="47.1" height="2.7"></rect>
    <rect class="st9" x="146.3" y="164" width="47.1" height="8.1"></rect>
    <rect class="st9" x="92.4" y="164" width="47.1" height="6.7"></rect>
    <rect class="st8" x="92.4" y="172" width="47.1" height="6.7"></rect>
    <rect class="st6" x="253.9" y="177.4" width="47.1" height="10.8"></rect>
    <rect class="st6" x="146.3" y="173.4" width="47.1" height="10.8"></rect>
    <rect class="st11" x="415" y="164" width="47" height="79"></rect>
    <rect class="st11" x="469.2" y="164" width="47.1" height="10.8"></rect>
    <path class="st13" d="M101.6,192.5h1.3v6.4h-1.3v-4.1c0,0-.2,0-.3,0h-1.1v-1.1h1c.3,0,.5-.3.5-.6v-.6ZM103.6,197.9l2.4-2c.6-.5.9-.8.9-1.4s-.4-1-1-1-1,.4-1,1.1h0c0,0-1.3,0-1.3,0v-.2c0-1.2.9-2.1,2.3-2.1s2.3.8,2.3,2-.5,1.5-1.3,2.2l-1.4,1.2h2.8v1.1h-4.7v-1ZM108.7,198.2c0-.4.3-.8.8-.8s.8.3.8.8-.3.8-.8.8-.8-.3-.8-.8ZM110.7,197.9l2.4-2c.6-.5.9-.8.9-1.4s-.4-1-1-1-1,.4-1,1.1h0c0,0-1.3,0-1.3,0v-.2c0-1.2.9-2.1,2.3-2.1s2.3.8,2.3,2-.5,1.5-1.3,2.2l-1.4,1.2h2.8v1.1h-4.7v-1ZM115.5,192.5h4.7v.8l-2.8,5.5h-1.4l2.8-5.2h-3.2v-1.1ZM119.7,198.2c0-.4.3-.8.8-.8s.8.3.8.8-.3.8-.8.8-.8-.3-.8-.8ZM121.7,197.9l2.4-2c.6-.5.9-.8.9-1.4s-.4-1-1-1-1,.4-1,1.1h0c0,0-1.3,0-1.3,0v-.2c0-1.2.9-2.1,2.3-2.1s2.3.8,2.3,2-.5,1.5-1.3,2.2l-1.4,1.2h2.8v1.1h-4.7v-1ZM130.3,195.6c.7.2,1.4.6,1.4,1.5s-1,1.8-2.5,1.8-2.5-.8-2.5-2.2h1.3c0,.7.5,1.1,1.2,1.1s1.1-.3,1.1-.9-.4-.8-1.2-.8h-.6v-1h.6c.7,0,1.1-.4,1.1-.9s-.4-.8-1-.8-1.1.4-1.1.9h-1.3c0-1.2.9-2,2.3-2s2.3.7,2.3,1.7-.5,1.2-1.2,1.4Z"></path>
    <path class="st13" d="M150.8,209.3v-.3c0-1.9,1.1-3.1,2.6-3.1s2.6,1.2,2.6,3.1v.3c0,1.9-1.1,3.1-2.6,3.1s-2.6-1.2-2.6-3.1ZM154.8,209.1c0-1.3-.5-2-1.3-2s-1.3.7-1.3,2v.2c0,1.3.5,2,1.3,2s1.3-.7,1.3-2v-.2ZM160,209c.7.2,1.4.6,1.4,1.5s-1,1.8-2.5,1.8-2.5-.8-2.5-2.2h1.3c0,.7.5,1.1,1.2,1.1s1.1-.3,1.1-.9-.4-.8-1.2-.8h-.6v-1h.6c.7,0,1.1-.4,1.1-.9s-.4-.8-1-.8-1.1.4-1.1.9h-1.3c0-1.2.9-2,2.3-2s2.3.7,2.3,1.7-.5,1.2-1.2,1.4ZM161.7,211.7c0-.4.3-.8.8-.8s.8.3.8.8-.3.8-.8.8-.8-.3-.8-.8ZM163.7,211.3l2.4-2c.6-.5.9-.8.9-1.4s-.4-1-1-1-1,.4-1,1.1h0c0,0-1.3,0-1.3,0v-.2c0-1.2.9-2.1,2.3-2.1s2.3.8,2.3,2-.5,1.5-1.3,2.2l-1.4,1.2h2.8v1.1h-4.7v-1ZM168.5,206h4.7v.8l-2.8,5.5h-1.4l2.8-5.2h-3.2v-1.1ZM172.7,211.7c0-.4.3-.8.8-.8s.8.3.8.8-.3.8-.8.8-.8-.3-.8-.8ZM174.7,211.3l2.4-2c.6-.5.9-.8.9-1.4s-.4-1-1-1-1,.4-1,1.1h0c0,0-1.3,0-1.3,0v-.2c0-1.2.9-2.1,2.3-2.1s2.3.8,2.3,2-.5,1.5-1.3,2.2l-1.4,1.2h2.8v1.1h-4.7v-1ZM183.3,209c.7.2,1.4.6,1.4,1.5s-1,1.8-2.5,1.8-2.5-.8-2.5-2.2h1.3c0,.7.5,1.1,1.2,1.1s1.1-.3,1.1-.9-.4-.8-1.2-.8h-.6v-1h.6c.7,0,1.1-.4,1.1-.9s-.4-.8-1-.8-1.1.4-1.1.9h-1.3c0-1.2.9-2,2.3-2s2.3.7,2.3,1.7-.5,1.2-1.2,1.4Z"></path>
    <path class="st13" d="M206.8,191.8v-.3c0-1.9,1.1-3.1,2.6-3.1s2.6,1.2,2.6,3.1v.3c0,1.9-1.1,3.1-2.6,3.1s-2.6-1.2-2.6-3.1ZM210.8,191.6c0-1.3-.5-2-1.3-2s-1.3.7-1.3,2v.2c0,1.3.5,2,1.3,2s1.3-.7,1.3-2v-.2ZM216.8,189.4c.4.5.6,1.3.6,2.2,0,2.1-.9,3.3-2.6,3.3s-2.2-.7-2.3-1.9h1.3c.1.5.5.8,1.1.8.9,0,1.3-.7,1.3-1.8v-.2c0,0,0,.1-.1.2-.3.4-.8.7-1.4.7-1.3,0-2.2-.8-2.2-2.1s1-2.2,2.4-2.2,1.5.3,2,.9ZM213.8,190.6c0,.6.4,1.1,1.1,1.1s1.1-.5,1.1-1.1-.4-1.1-1.1-1.1-1.1.5-1.1,1.1ZM217.6,194.2c0-.4.3-.8.8-.8s.8.3.8.8-.3.8-.8.8-.8-.3-.8-.8ZM219.6,193.9l2.4-2c.6-.5.9-.8.9-1.4s-.4-1-1-1-1,.4-1,1.1h0c0,.1-1.3.1-1.3.1v-.2c0-1.2.9-2.1,2.3-2.1s2.3.8,2.3,2-.5,1.5-1.3,2.2l-1.4,1.2h2.8v1.1h-4.7v-1ZM224.4,188.5h4.7v.8l-2.8,5.5h-1.4l2.8-5.2h-3.2v-1.1ZM228.6,194.2c0-.4.3-.8.8-.8s.8.3.8.8-.3.8-.8.8-.8-.3-.8-.8ZM230.6,193.9l2.4-2c.6-.5.9-.8.9-1.4s-.4-1-1-1-1,.4-1,1.1h0c0,.1-1.3.1-1.3.1v-.2c0-1.2.9-2.1,2.3-2.1s2.3.8,2.3,2-.5,1.5-1.3,2.2l-1.4,1.2h2.8v1.1h-4.7v-1ZM238.4,190.5c1.2,0,2.1.9,2.1,2.2s-1.1,2.2-2.4,2.2-2.4-.9-2.4-2.1h1.3c0,.6.5,1,1.1,1s1.1-.4,1.1-1.1-.4-1.1-1.1-1.1-.9.1-1.1.7h-1.3l.2-3.7h4.2v1.1h-3v1.4c.3-.3.7-.5,1.2-.5Z"></path>
    <path class="st13" d="M260.5,213.4v-.3c0-1.9,1.1-3.1,2.6-3.1s2.6,1.2,2.6,3.1v.3c0,1.9-1.1,3.1-2.6,3.1s-2.6-1.2-2.6-3.1ZM264.5,213.1c0-1.3-.5-2-1.3-2s-1.3.7-1.3,2v.2c0,1.3.5,2,1.3,2s1.3-.7,1.3-2v-.2ZM270.6,210.9c.4.5.6,1.3.6,2.2,0,2.1-.9,3.3-2.6,3.3s-2.2-.7-2.3-1.9h1.3c.1.5.5.8,1.1.8.9,0,1.3-.7,1.3-1.8v-.2c0,0,0,.1-.1.2-.3.4-.8.7-1.4.7-1.3,0-2.2-.8-2.2-2.1s1-2.2,2.4-2.2,1.5.3,2,.9ZM267.5,212.1c0,.6.4,1.1,1.1,1.1s1.1-.5,1.1-1.1-.4-1.1-1.1-1.1-1.1.5-1.1,1.1ZM271.3,215.7c0-.4.3-.8.8-.8s.8.3.8.8-.3.8-.8.8-.8-.3-.8-.8ZM273.3,215.4l2.4-2c.6-.5.9-.8.9-1.4s-.4-1-1-1-1,.4-1,1.1h0c0,0-1.3,0-1.3,0v-.2c0-1.2.9-2.1,2.3-2.1s2.3.8,2.3,2-.5,1.5-1.3,2.2l-1.4,1.2h2.8v1.1h-4.7v-1ZM278.1,210h4.7v.8l-2.8,5.5h-1.4l2.8-5.2h-3.2v-1.1ZM282.3,215.7c0-.4.3-.8.8-.8s.8.3.8.8-.3.8-.8.8-.8-.3-.8-.8ZM284.3,215.4l2.4-2c.6-.5.9-.8.9-1.4s-.4-1-1-1-1,.4-1,1.1h0c0,0-1.3,0-1.3,0v-.2c0-1.2.9-2.1,2.3-2.1s2.3.8,2.3,2-.5,1.5-1.3,2.2l-1.4,1.2h2.8v1.1h-4.7v-1ZM290,215.4c-.4-.5-.6-1.3-.6-2.2,0-2.1,1-3.3,2.6-3.3s2.1.7,2.3,1.9h-1.3c-.1-.5-.5-.8-1.1-.8-.8,0-1.3.7-1.3,1.8v.2s0,0,0-.1c.3-.5.8-.7,1.5-.7,1.3,0,2.2.9,2.2,2.2s-1,2.2-2.4,2.2-1.6-.4-2-1ZM293.1,214.3c0-.7-.4-1.1-1.1-1.1s-1.1.5-1.1,1.1.4,1.1,1.1,1.1,1.1-.5,1.1-1.1Z"></path>
    <path class="st13" d="M314.7,224.1v-.3c0-1.9,1.1-3.1,2.6-3.1s2.6,1.2,2.6,3.1v.3c0,1.9-1.1,3.1-2.6,3.1s-2.6-1.2-2.6-3.1ZM318.6,223.9c0-1.3-.5-2-1.3-2s-1.3.7-1.3,2v.2c0,1.3.5,2,1.3,2s1.3-.7,1.3-2v-.2ZM324.7,221.7c.4.5.6,1.3.6,2.2,0,2.1-.9,3.3-2.6,3.3s-2.2-.7-2.3-1.9h1.3c.1.5.5.8,1.1.8.9,0,1.3-.7,1.3-1.8v-.2c0,0,0,.1-.1.2-.3.4-.8.7-1.4.7-1.3,0-2.2-.8-2.2-2.1s1-2.2,2.4-2.2,1.5.3,2,.9ZM321.7,222.9c0,.6.4,1.1,1.1,1.1s1.1-.5,1.1-1.1-.4-1.1-1.1-1.1-1.1.5-1.1,1.1ZM325.5,226.5c0-.4.3-.8.8-.8s.8.3.8.8-.3.8-.8.8-.8-.3-.8-.8ZM327.5,226.1l2.4-2c.6-.5.9-.8.9-1.4s-.4-1-1-1-1,.4-1,1.1h0c0,0-1.3,0-1.3,0v-.2c0-1.2.9-2.1,2.3-2.1s2.3.8,2.3,2-.5,1.5-1.3,2.2l-1.4,1.2h2.8v1.1h-4.7v-1ZM332.3,220.8h4.7v.8l-2.8,5.5h-1.4l2.8-5.2h-3.2v-1.1ZM336.5,226.5c0-.4.3-.8.8-.8s.8.3.8.8-.3.8-.8.8-.8-.3-.8-.8ZM338.5,226.1l2.4-2c.6-.5.9-.8.9-1.4s-.4-1-1-1-1,.4-1,1.1h0c0,0-1.3,0-1.3,0v-.2c0-1.2.9-2.1,2.3-2.1s2.3.8,2.3,2-.5,1.5-1.3,2.2l-1.4,1.2h2.8v1.1h-4.7v-1ZM343.3,220.8h4.7v.8l-2.8,5.5h-1.4l2.8-5.2h-3.2v-1.1Z"></path>
    <path class="st13" d="M368.2,360v-.3c0-1.9,1.1-3.1,2.6-3.1s2.6,1.2,2.6,3.1v.3c0,1.9-1.1,3.1-2.6,3.1s-2.6-1.2-2.6-3.1ZM372.2,359.8c0-1.3-.5-2-1.3-2s-1.3.7-1.3,2v.2c0,1.3.5,2,1.3,2s1.3-.7,1.3-2v-.2ZM378.3,357.6c.4.5.6,1.3.6,2.2,0,2.1-.9,3.3-2.6,3.3s-2.2-.7-2.3-1.9h1.3c.1.5.5.8,1.1.8.9,0,1.3-.7,1.3-1.8v-.2c0,0,0,.1-.1.2-.3.4-.8.7-1.4.7-1.3,0-2.2-.8-2.2-2.1s1-2.2,2.4-2.2,1.5.3,2,.9ZM375.2,358.8c0,.6.4,1.1,1.1,1.1s1.1-.5,1.1-1.1-.4-1.1-1.1-1.1-1.1.5-1.1,1.1ZM379,362.3c0-.4.3-.8.8-.8s.8.3.8.8-.3.8-.8.8-.8-.3-.8-.8ZM381,362l2.4-2c.6-.5.9-.8.9-1.4s-.4-1-1-1-1,.4-1,1.1h0c0,0-1.3,0-1.3,0v-.2c0-1.2.9-2.1,2.3-2.1s2.3.8,2.3,2-.5,1.5-1.3,2.2l-1.4,1.2h2.8v1.1h-4.7v-1ZM385.8,356.7h4.7v.8l-2.8,5.5h-1.4l2.8-5.2h-3.2v-1.1ZM390,362.3c0-.4.3-.8.8-.8s.8.3.8.8-.3.8-.8.8-.8-.3-.8-.8ZM392,362l2.4-2c.6-.5.9-.8.9-1.4s-.4-1-1-1-1,.4-1,1.1h0c0,0-1.3,0-1.3,0v-.2c0-1.2.9-2.1,2.3-2.1s2.3.8,2.3,2-.5,1.5-1.3,2.2l-1.4,1.2h2.8v1.1h-4.7v-1ZM400.6,359.7c.7.1,1.3.6,1.3,1.6s-.9,1.8-2.4,1.8-2.4-.7-2.4-1.8.6-1.4,1.3-1.6c-.6-.2-1.1-.6-1.1-1.4s.8-1.7,2.3-1.7,2.3.7,2.3,1.7-.5,1.3-1.1,1.4ZM399.5,357.6c-.6,0-1,.3-1,.8s.4.8,1,.8,1-.3,1-.8-.4-.8-1-.8ZM399.5,362.2c.6,0,1.1-.4,1.1-.9s-.5-1-1.1-1-1.1.4-1.1,1,.5.9,1.1.9Z"></path>
    <path class="st13" d="M422.1,294.1v-.3c0-1.9,1.1-3.1,2.6-3.1s2.6,1.2,2.6,3.1v.3c0,1.9-1.1,3.1-2.6,3.1s-2.6-1.2-2.6-3.1ZM426,293.8c0-1.3-.5-2-1.3-2s-1.3.7-1.3,2v.2c0,1.3.5,2,1.3,2s1.3-.7,1.3-2v-.2ZM432.1,291.6c.4.5.6,1.3.6,2.2,0,2.1-.9,3.3-2.6,3.3s-2.2-.7-2.3-1.9h1.3c.1.5.5.8,1.1.8.9,0,1.3-.7,1.3-1.8v-.2c0,0,0,.1-.1.2-.3.4-.8.7-1.4.7-1.3,0-2.2-.8-2.2-2.1s1-2.2,2.4-2.2,1.5.3,2,.9ZM429,292.9c0,.6.4,1.1,1.1,1.1s1.1-.5,1.1-1.1-.4-1.1-1.1-1.1-1.1.5-1.1,1.1ZM432.8,296.4c0-.4.3-.8.8-.8s.8.3.8.8-.3.8-.8.8-.8-.3-.8-.8ZM434.8,296.1l2.4-2c.6-.5.9-.8.9-1.4s-.4-1-1-1-1,.4-1,1.1h0c0,.1-1.3.1-1.3.1v-.2c0-1.2.9-2.1,2.3-2.1s2.3.8,2.3,2-.5,1.5-1.3,2.2l-1.4,1.2h2.8v1.1h-4.7v-1ZM439.7,290.8h4.7v.8l-2.8,5.5h-1.4l2.8-5.2h-3.2v-1.1ZM443.8,296.4c0-.4.3-.8.8-.8s.8.3.8.8-.3.8-.8.8-.8-.3-.8-.8ZM449.1,293.8c.7.2,1.4.6,1.4,1.5s-1,1.8-2.5,1.8-2.5-.8-2.5-2.2h1.3c0,.7.5,1.1,1.2,1.1s1.1-.3,1.1-.9-.4-.8-1.2-.8h-.6v-1h.6c.7,0,1.1-.4,1.1-.9s-.4-.8-1-.8-1.1.4-1.1.9h-1.3c0-1.2.9-2,2.3-2s2.3.7,2.3,1.7-.5,1.2-1.2,1.4ZM454.4,293.8c.7.2,1.4.6,1.4,1.5s-1,1.8-2.5,1.8-2.5-.8-2.5-2.2h1.3c0,.7.5,1.1,1.2,1.1s1.1-.3,1.1-.9-.4-.8-1.2-.8h-.6v-1h.6c.7,0,1.1-.4,1.1-.9s-.4-.8-1-.8-1.1.4-1.1.9h-1.3c0-1.2.9-2,2.3-2s2.3.7,2.3,1.7-.5,1.2-1.2,1.4Z"></path>
    <path class="st13" d="M475.8,210.7v-.3c0-1.9,1.1-3.1,2.6-3.1s2.6,1.2,2.6,3.1v.3c0,1.9-1.1,3.1-2.6,3.1s-2.6-1.2-2.6-3.1ZM479.7,210.4c0-1.3-.5-2-1.3-2s-1.3.7-1.3,2v.2c0,1.3.5,2,1.3,2s1.3-.7,1.3-2v-.2ZM485.8,208.2c.4.5.6,1.3.6,2.2,0,2.1-.9,3.3-2.6,3.3s-2.2-.7-2.3-1.9h1.3c.1.5.5.8,1.1.8.9,0,1.3-.7,1.3-1.8v-.2c0,0,0,.1-.1.2-.3.4-.8.7-1.4.7-1.3,0-2.2-.8-2.2-2.1s1-2.2,2.4-2.2,1.5.3,2,.9ZM482.8,209.4c0,.6.4,1.1,1.1,1.1s1.1-.5,1.1-1.1-.4-1.1-1.1-1.1-1.1.5-1.1,1.1ZM486.6,213c0-.4.3-.8.8-.8s.8.3.8.8-.3.8-.8.8-.8-.3-.8-.8ZM488.6,212.7l2.4-2c.6-.5.9-.8.9-1.4s-.4-1-1-1-1,.4-1,1.1h0c0,.1-1.3.1-1.3.1v-.2c0-1.2.9-2.1,2.3-2.1s2.3.8,2.3,2-.5,1.5-1.3,2.2l-1.4,1.2h2.8v1.1h-4.7v-1ZM493.4,207.3h4.7v.8l-2.8,5.5h-1.4l2.8-5.2h-3.2v-1.1ZM497.6,213c0-.4.3-.8.8-.8s.8.3.8.8-.3.8-.8.8-.8-.3-.8-.8ZM502.8,210.4c.7.2,1.4.6,1.4,1.5s-1,1.8-2.5,1.8-2.5-.8-2.5-2.2h1.3c0,.7.5,1.1,1.2,1.1s1.1-.3,1.1-.9-.4-.8-1.2-.8h-.6v-1h.6c.7,0,1.1-.4,1.1-.9s-.4-.8-1-.8-1.1.4-1.1.9h-1.3c0-1.2.9-2,2.3-2s2.3.7,2.3,1.7-.5,1.2-1.2,1.4ZM505.3,212.8c-.4-.5-.6-1.3-.6-2.2,0-2.1,1-3.3,2.6-3.3s2.1.7,2.3,1.9h-1.3c-.1-.5-.5-.8-1.1-.8-.8,0-1.3.7-1.3,1.8v.2s0,0,0-.1c.3-.5.8-.7,1.5-.7,1.3,0,2.2.9,2.2,2.2s-1,2.2-2.4,2.2-1.6-.4-2-1ZM508.4,211.6c0-.7-.4-1.1-1.1-1.1s-1.1.5-1.1,1.1.4,1.1,1.1,1.1,1.1-.5,1.1-1.1Z"></path>
    <path class="st7" d="M59.9,413.9h-7v-.6h7v.6ZM65.7,417.9c-1.4,0-2.4-.7-3-1.8-.5-.9-.8-2.2-.8-3.6,0-3.2,1.3-5.3,3.7-5.3s3,1.2,3.2,2.8h-.8c-.3-1.2-1.1-2.1-2.5-2.1-2,0-3,2-3,4.4s0,.9.1,1.4c0-.1,0-.3,0-.4.2-1.4,1.4-2.4,3-2.4s3.3,1.4,3.3,3.5-1.4,3.5-3.4,3.5ZM65.6,417.2c1.6,0,2.6-1.2,2.6-2.8s-1-2.8-2.6-2.8-2.7,1.2-2.7,2.8,1.1,2.8,2.6,2.8ZM71.8,417.8h-.8v-10.5h.8v7.5l4.6-4.6h1l-3.2,3.2,3.4,4.4h-.9l-3-3.9-1.8,1.8v2.1Z"></path>
    <path class="st7" d="M61.9,253.8h-7v-.6h7v.6ZM70.4,257.7h-6.8v-.7l3.9-3.7c1-.9,1.9-1.8,1.9-3.1s-1-2.4-2.5-2.4-2.5,1-2.5,2.6v.2h-.8v-.3c0-2,1.3-3.3,3.3-3.3s3.3,1.2,3.3,3-1.1,2.6-2.2,3.7l-3.4,3.2h5.7v.7ZM73.1,257.7h-.8v-10.5h.8v7.5l4.6-4.6h1l-3.2,3.2,3.4,4.4h-.9l-3-3.9-1.8,1.8v2.1Z"></path>
    <path class="st7" d="M73.2,167.7c2.2,0,3.6,1.9,3.6,5.1v.5c0,3.2-1.4,5.1-3.6,5.1s-3.6-1.9-3.6-5.1v-.5c0-3.2,1.4-5.1,3.6-5.1ZM70.4,172.9v.4c0,.8,0,1.5.3,2.1l4.9-5.4c-.5-1-1.3-1.6-2.3-1.6-1.7,0-2.8,1.6-2.8,4.4ZM76,173.3v-.4c0-.8,0-1.5-.3-2.1l-4.9,5.4c.5,1,1.3,1.6,2.3,1.6,1.7,0,2.8-1.6,2.8-4.4Z"></path>
    <path class="st8" d="M51.7,112.2v-18.7h5.5c5.8,0,9.4,3.7,9.4,9.3s-3.6,9.3-9.4,9.3h-5.5ZM54,110.1h3.2c4.5,0,7-2.9,7-7.2s-2.5-7.2-7-7.2h-3.2v14.4ZM68.7,105.4c0-4.2,2.6-7,6.5-7s6.4,2.4,6.5,6.5c0,.3,0,.6,0,.9h-10.6v.2c0,2.6,1.8,4.4,4.3,4.4s3.4-1,3.9-2.8h2.2c-.5,2.7-2.8,4.7-5.9,4.7s-6.8-2.8-6.8-7ZM71.1,104h8.2c-.2-2.4-1.9-3.7-4.2-3.7s-3.8,1.4-4.1,3.7ZM91,98.4c3.8,0,6.5,2.5,6.5,7s-2.8,7-6.5,7-3.8-.9-4.7-2.2l-.3,2.1h-1.9v-18.7h2.2v7.3c.9-1.3,2.4-2.3,4.7-2.3ZM90.8,110.4c2.7,0,4.5-2.1,4.5-5s-1.8-5-4.5-5-4.5,2.1-4.5,5,1.8,5.1,4.5,5.1ZM100.8,108.7v-8.1h-2.5v-2h2.5v-3.8h2.2v3.8h3.4v2h-3.4v8c0,1.1.4,1.6,1.5,1.6h2.4v2h-2.5c-2.6,0-3.6-1.1-3.6-3.6ZM115.7,93.5h2.9l6.6,15.5,6.5-15.5h2.9v18.7h-2.3v-14.7l-6.2,14.7h-2.1l-6.2-14.7v14.7h-2.3v-18.7ZM150.1,110.2h.7v2h-1.2c-1.8,0-2.4-.8-2.5-2.1-.9,1.2-2.2,2.3-4.6,2.3s-5-1.5-5-4,1.9-4.2,5.5-4.2h4v-.9c0-1.8-1.3-2.8-3.4-2.8s-3.2.9-3.5,2.3h-2.2c.3-2.7,2.5-4.2,5.8-4.2s5.5,1.7,5.5,4.9v5.9c0,.7.3,1,.9,1ZM147,106.7v-.7h-4.2c-1.9,0-3,.7-3,2.3s1.1,2.2,3,2.2c2.7,0,4.3-1.6,4.3-3.8ZM153.3,108.7v-8.1h-2.5v-2h2.5v-3.8h2.2v3.8h3.4v2h-3.4v8c0,1.1.4,1.6,1.5,1.6h2.4v2h-2.5c-2.6,0-3.6-1.1-3.6-3.6ZM170.5,98.6h2.2v13.6h-1.9l-.3-1.8c-.8,1-2.1,2-4.4,2s-5.4-1.7-5.4-6.2v-7.6h2.2v7.4c0,2.8,1.3,4.3,3.6,4.3s4-1.9,4-5v-6.8ZM182,98.6h.6v2.1h-1.1c-2.9,0-3.6,2.4-3.6,4.5v6.9h-2.2v-13.6h1.9l.3,2.1c.6-1,1.7-2.1,4.1-2.1ZM185.7,93.3c.8,0,1.4.6,1.4,1.4s-.6,1.4-1.4,1.4-1.4-.6-1.4-1.4.6-1.4,1.4-1.4ZM184.6,98.6h2.2v13.6h-2.2v-13.6ZM190.7,108.7v-8.1h-2.5v-2h2.5v-3.8h2.2v3.8h3.4v2h-3.4v8c0,1.1.4,1.6,1.5,1.6h2.4v2h-2.5c-2.6,0-3.6-1.1-3.6-3.6ZM199.4,93.3c.8,0,1.4.6,1.4,1.4s-.6,1.4-1.4,1.4-1.4-.6-1.4-1.4.6-1.4,1.4-1.4ZM198.3,98.6h2.2v13.6h-2.2v-13.6ZM203,105.4c0-4.2,2.6-7,6.5-7s6.4,2.4,6.5,6.5c0,.3,0,.6,0,.9h-10.6v.2c0,2.6,1.8,4.4,4.3,4.4s3.4-1,3.9-2.8h2.2c-.5,2.7-2.8,4.7-5.9,4.7s-6.8-2.8-6.8-7ZM205.4,104h8.2c-.2-2.4-1.9-3.7-4.2-3.7s-3.8,1.4-4.1,3.7ZM217.9,107.7h2.2c0,1.6,1.5,2.8,3.7,2.8s3.2-.8,3.2-2.1-1.5-1.9-3.5-2.1c-3-.4-5.4-.9-5.4-3.8s2.3-4.1,5.3-4.1c3.1,0,5.3,1.5,5.5,4.3h-2.2c-.2-1.4-1.5-2.5-3.3-2.5s-3.1.8-3.1,2.1,1.4,1.6,3.3,1.9c3,.4,5.5,1,5.5,4s-2.4,4.1-5.4,4.1-5.9-1.7-5.9-4.6ZM239,112.2v-18.7h2.3v16.6h8.5v2.1h-10.8ZM263.8,110.2h.7v2h-1.2c-1.8,0-2.4-.8-2.5-2.1-.9,1.2-2.2,2.3-4.6,2.3s-5-1.5-5-4,1.9-4.2,5.5-4.2h4v-.9c0-1.8-1.3-2.8-3.4-2.8s-3.2.9-3.5,2.3h-2.2c.3-2.7,2.5-4.2,5.8-4.2s5.5,1.7,5.5,4.9v5.9c0,.7.3,1,.9,1ZM260.7,106.7v-.7h-4.2c-1.9,0-3,.7-3,2.3s1.1,2.2,3,2.2c2.7,0,4.3-1.6,4.3-3.8ZM276.9,93.5h2.2v18.7h-1.9l-.3-2.2c-.9,1.3-2.4,2.3-4.7,2.3-3.8,0-6.5-2.5-6.5-7s2.8-7,6.5-7,3.8.9,4.7,2.2v-7.2ZM272.4,110.4c2.7,0,4.5-2.1,4.5-5s-1.8-5.1-4.5-5.1-4.5,2.1-4.5,5,1.8,5,4.5,5ZM292.8,93.5h2.2v18.7h-1.9l-.3-2.2c-.9,1.3-2.4,2.3-4.7,2.3-3.8,0-6.5-2.5-6.5-7s2.8-7,6.5-7,3.8.9,4.7,2.2v-7.2ZM288.3,110.4c2.7,0,4.5-2.1,4.5-5s-1.8-5.1-4.5-5.1-4.5,2.1-4.5,5,1.8,5,4.5,5ZM297.5,105.4c0-4.2,2.6-7,6.5-7s6.4,2.4,6.5,6.5c0,.3,0,.6,0,.9h-10.6v.2c0,2.6,1.8,4.4,4.3,4.4s3.4-1,3.9-2.8h2.2c-.5,2.7-2.8,4.7-5.9,4.7s-6.8-2.8-6.8-7ZM299.9,104h8.2c-.2-2.4-1.9-3.7-4.2-3.7s-3.8,1.4-4.1,3.7ZM319.2,98.6h.6v2.1h-1.1c-2.9,0-3.6,2.4-3.6,4.5v6.9h-2.2v-13.6h1.9l.3,2.1c.6-1,1.7-2.1,4.1-2.1Z"></path>
    <rect class="st10" x="415.4" y="244" width="47.1" height="11.5"></rect>
  </g>
  <g>
    <rect class="st5" x="335.9" y="24.4" width="224.1" height="64.8" rx="32.4" ry="32.4" shape-rendering="crispEdges"></rect>
    <rect class="st12" x="344.2" y="30.7" width="52.5" height="52.5" rx="26.2" ry="26.2"></rect>
    <path class="st4" d="M360.7,69.6v-4.8h4.8"></path>
    <path class="st4" d="M382.4,55c1.2,6.3-2.7,12.6-9,14.2-4.8,1.3-9.7-.4-12.7-4"></path>
    <path class="st4" d="M358.1,59.5c-1.2-6.3,2.7-12.6,9-14.2,4.8-1.3,9.7.4,12.7,4"></path>
    <path class="st4" d="M379.8,44.8v4.8h-4.8"></path>
    <path d="M420.3,43.6h9.2c4.8,0,8,2.9,8,7.4s-3.2,7.4-8,7.4h-6.2v9.2h-3v-24ZM423.2,46.4v9.3h6c3.2,0,5.2-1.8,5.2-4.7s-2-4.6-5.1-4.6h-6ZM437.7,58.9c0-5.4,3.4-9,8.3-9s8.2,3.1,8.3,8.3c0,.4,0,.8,0,1.2h-13.6v.2c.1,3.4,2.3,5.7,5.5,5.7s4.4-1.3,5-3.6h2.8c-.7,3.5-3.6,6.1-7.6,6.1s-8.7-3.6-8.7-9ZM440.8,57.1h10.6c-.3-3-2.4-4.7-5.4-4.7s-4.9,1.9-5.2,4.7ZM464.6,50.2h.8v2.7h-1.4c-3.7,0-4.7,3.1-4.7,5.8v8.9h-2.8v-17.5h2.4l.4,2.6c.8-1.3,2.2-2.6,5.3-2.6ZM465.4,50.2h3.2v-2c0-3.1,1.3-4.6,4.6-4.6h3.2v2.6h-3.1c-1.4,0-1.9.6-1.9,1.9v2h4.9v2.6h-4.9v14.9h-2.8v-14.9h-3.2v-2.6ZM484.4,67.9c-5.1,0-8.7-3.6-8.7-9s3.6-9,8.7-9,8.7,3.6,8.7,9-3.6,9-8.7,9ZM484.4,65.4c3.5,0,5.8-2.7,5.8-6.5s-2.3-6.5-5.8-6.5-5.8,2.7-5.8,6.5,2.3,6.5,5.8,6.5ZM503.4,50.2h.8v2.7h-1.4c-3.7,0-4.7,3.1-4.7,5.8v8.9h-2.8v-17.5h2.4l.4,2.6c.8-1.3,2.2-2.6,5.3-2.6ZM525.3,50c3.6,0,6.6,2.1,6.6,7.6v10.1h-2.8v-9.9c0-3.4-1.5-5.2-4.2-5.2s-4.7,2.2-4.7,5.8v9.4h-2.8v-9.9c0-3.4-1.5-5.2-4.2-5.2s-4.6,2.4-4.6,5.9v9.2h-2.8v-17.5h2.4l.4,2.4c.9-1.3,2.4-2.6,5.1-2.6s4.5,1.1,5.5,3.3c1.1-1.9,3-3.3,6.1-3.3Z"></path>
  </g>
</svg>
